<svg xmlns="http://www.w3.org/2000/svg" fill="none" viewBox="0 0 40 54"><path stroke="#fff" stroke-miterlimit="10" stroke-width="2" d="m22.398 53.5.635-1.905a1.937 1.937 0 0 0-1.195-2.444l-16.45-5.806a1.942 1.942 0 0 0-2.531 1.2l-1.19 3.374"/><path fill="#fff" d="M7.61 47.1H5.668v1.94h1.94V47.1Z"/><path stroke="#fff" stroke-miterlimit="10" stroke-width="2" d="m30.777 24.38-.143.145a2.425 2.425 0 1 0 3.43 3.43l2.911-2.91a2.425 2.425 0 0 0-1.715-4.14c-.495-.001-.984.096-1.445.508"/><path stroke="#fff" stroke-miterlimit="10" stroke-width="2" d="m31.154 24.075 2.91-2.911a2.425 2.425 0 1 0-3.43-3.43l-2.91 2.91a2.425 2.425 0 1 0 3.43 3.43Zm2.731 4.043-2.28 2.23a2.425 2.425 0 1 0 3.43 3.43l2.91-2.912a2.425 2.425 0 0 0-1.715-4.14c-.495 0-1.007.122-1.494.558M6.528 43.748 2.982 29.562a7.528 7.528 0 0 1 .26-4.472s2.694-6.95 3.512-9.295c.34-.968 1.23-1.682 2.31-1.682a2.425 2.425 0 0 1 2.426 2.425c0 .76-.213 2.099-.596 3.55"/><path stroke="#fff" stroke-miterlimit="10" stroke-width="2" d="m30.634 17.733 6.341-6.271a2.425 2.425 0 1 0-3.43-3.43l-2.651 2.65m.607 26.618-3.747 3.735c-2.966 2.96-4.541 2.184-7.524 7.548m14.805-14.806-2.3 2.293"/><path stroke="#fff" stroke-miterlimit="10" stroke-width="2" d="M30.894 16.053V2.47a.97.97 0 0 0-.97-.97h-6.792m3.881 14.553V1.5"/><path fill="#fff" d="M20.222 19.934h-1.94v1.94h1.94v-1.94ZM14.4 25.756h-1.94v1.94h1.94v-1.94Zm5.822 5.82h-1.94v1.94h1.94v-1.94Zm-3.882-1.94H14.4v1.94h1.94v-1.94Zm7.762 1.94h-1.94v1.94h1.94v-1.94Zm3.881 0h-1.94v1.94h1.94v-1.94ZM16.34 21.874H14.4v1.94h1.94v-1.94Z"/><path stroke="#fff" stroke-miterlimit="10" stroke-width="2" d="M32.834 34.438v1.02a1.94 1.94 0 0 1-1.94 1.94H19.252c-5.894 0-10.673-4.779-10.673-10.673s4.778-10.672 10.672-10.672h13.083"/></svg>