<svg xmlns="http://www.w3.org/2000/svg" fill="none" viewBox="0 0 40 40"><path fill="#FAFBFC" d="M33.333 11.733v16.534c0 2.533-.233 4.333-.833 5.616 0 .017-.017.05-.033.067-.367.467-.85.7-1.417.7-.883 0-1.95-.583-3.1-1.817-1.367-1.466-3.467-1.35-4.667.25L21.6 35.317c-.667.9-1.55 1.35-2.433 1.35-.884 0-1.767-.45-2.434-1.35l-1.7-2.25c-1.183-1.584-3.266-1.7-4.633-.25l-.017.016C8.5 34.85 6.833 35.15 5.867 33.95a.126.126 0 0 1-.034-.067C5.233 32.6 5 30.8 5 28.267V11.733c0-2.533.233-4.333.833-5.616 0-.017 0-.034.034-.05.95-1.217 2.633-.917 4.516 1.1l.017.016c1.367 1.45 3.45 1.334 4.633-.25l1.7-2.25c.667-.9 1.55-1.35 2.434-1.35.883 0 1.766.45 2.433 1.35l1.683 2.234c1.2 1.6 3.3 1.716 4.667.25 1.15-1.234 2.217-1.817 3.1-1.817.567 0 1.05.25 1.417.717.033.016.033.033.033.05.6 1.283.833 3.083.833 5.616Z" opacity=".4"/><path fill="#FAFBFC" d="M26.667 18.333H13.333c-.683 0-1.25-.566-1.25-1.25 0-.683.567-1.25 1.25-1.25h13.334c.683 0 1.25.567 1.25 1.25a1.26 1.26 0 0 1-1.25 1.25Zm-3.334 5.834h-10a1.26 1.26 0 0 1-1.25-1.25c0-.684.567-1.25 1.25-1.25h10c.684 0 1.25.566 1.25 1.25a1.26 1.26 0 0 1-1.25 1.25Z"/></svg>