<svg xmlns="http://www.w3.org/2000/svg" fill="none" viewBox="0 0 40 40"><path fill="#FAFBFC" d="M29.217 12.95a1.229 1.229 0 0 0-.35 0 4.79 4.79 0 0 1-4.634-4.8 4.82 4.82 0 0 1 4.817-4.817 4.82 4.82 0 0 1 4.817 4.817c-.017 2.6-2.067 4.717-4.65 4.8ZM34.65 24.5c-1.867 1.25-4.483 1.717-6.9 1.4.633-1.367.967-2.883.983-4.483 0-1.667-.366-3.25-1.066-4.634 2.466-.333 5.083.134 6.966 1.384 2.634 1.733 2.634 4.583.017 6.333ZM10.733 12.95c.117-.017.234-.017.35 0a4.79 4.79 0 0 0 4.634-4.8A4.82 4.82 0 0 0 10.9 3.333 4.819 4.819 0 0 0 6.083 8.15c.017 2.6 2.067 4.717 4.65 4.8Zm.184 8.467c0 1.616.35 3.15.983 4.533-2.35.25-4.8-.25-6.6-1.433-2.633-1.75-2.633-4.6 0-6.35 1.783-1.2 4.3-1.684 6.667-1.417-.684 1.4-1.05 2.983-1.05 4.667Z" opacity=".4"/><path fill="#FAFBFC" d="M20.2 26.45a1.878 1.878 0 0 0-.433 0 5.708 5.708 0 0 1-5.517-5.717A5.722 5.722 0 0 1 19.983 15a5.733 5.733 0 0 1 5.734 5.733c0 3.1-2.434 5.617-5.517 5.717Zm-5.417 3.45c-2.516 1.683-2.516 4.45 0 6.117 2.867 1.916 7.567 1.916 10.434 0 2.516-1.684 2.516-4.45 0-6.117-2.85-1.917-7.55-1.917-10.434 0Z"/></svg>