<svg xmlns="http://www.w3.org/2000/svg" fill="none" viewBox="0 0 40 40"><path fill="#FAFBFC" d="M9.167 16.667A5.833 5.833 0 1 0 9.167 5a5.833 5.833 0 0 0 0 11.667Zm0 18.333a5.833 5.833 0 1 0 0-11.667 5.833 5.833 0 0 0 0 11.667Z"/><path fill="#FAFBFC" d="m25.417 19.967 12-8.967a1.25 1.25 0 0 0-1.5-2l-12.584 9.417-9.25-6.917a1.25 1.25 0 0 0-1.5 2l8.667 6.483-9.833 7.367a1.25 1.25 0 0 0 .75 2.25c.266 0 .516-.083.75-.25l10.433-7.8 12.583 9.417c.217.166.484.25.75.25a1.25 1.25 0 0 0 .75-2.25l-12.016-9Z" opacity=".4"/></svg>