<svg xmlns="http://www.w3.org/2000/svg" fill="none" viewBox="0 0 1920 499"><g stroke="#BABABA" stroke-miterlimit="10" clip-path="url(#a)" opacity=".12"><path d="M777.746 744.453c159.417-43.999 252.064-19.09 411.484-63.089 159.42-43.999 66.77-68.908 226.14-112.894 159.37-43.986 252.06-19.09 411.48-63.089 159.42-43.999 66.77-68.908 226.18-112.906 159.42-43.999 252.07-19.091 411.53-63.103 159.47-44.011 66.77-68.907 226.19-112.906m-3725.26 32.659c159.413-43.999 252.064-19.091 411.481-63.09 159.416-43.999 66.765-68.907 226.136-112.893 159.371-43.986 252.068-19.09 411.484-63.09 159.417-43.998 66.766-68.907 226.182-112.906 159.417-43.999 252.068-19.09 411.531-63.102 159.462-44.011 66.765-68.907 226.182-112.906M123.451 559.445c159.417-43.999 252.068-19.09 411.485-63.089 159.416-43.999 66.765-68.907 226.136-112.894 159.371-43.986 252.068-19.09 411.488-63.089 159.41-43.999 66.76-68.907 226.18-112.906 159.41-43.999 252.07-19.091 411.53-63.103 159.46-44.011 66.76-68.907 226.18-112.906M-464.245 401.656c159.417-43.999 252.068-19.09 411.484-63.089 159.417-43.999 66.766-68.908 226.137-112.894 159.37-43.986 252.067-19.09 411.484-63.089 159.417-43.999 66.765-68.907 226.182-112.906 159.417-44 252.068-19.091 411.528-63.103 159.46-44.011 66.77-68.907 226.18-112.906M691.416 716.633c159.417-43.999 252.068-19.091 411.484-63.09 159.42-43.999 66.77-68.907 226.14-112.893 159.37-43.986 252.06-19.091 411.48-63.09 159.42-43.999 66.77-68.907 226.18-112.906 159.42-43.999 252.07-19.09 411.53-63.102 159.47-44.012 66.77-68.907 226.19-112.906M-754.281 330.352c159.416-43.999 252.067-19.091 411.484-63.09 159.417-43.999 66.766-68.907 226.136-112.893 159.371-43.987 252.068-19.091 411.485-63.09C454.24 47.28 361.589 22.372 521.006-21.627c159.416-43.999 252.068-19.09 411.53-63.102 159.464-44.012 66.766-68.908 226.184-112.906M401.381 640.156c159.416-43.999 252.068-19.09 411.484-63.089 159.417-43.999 66.766-68.908 226.135-112.894 159.37-43.986 252.07-19.09 411.49-63.089 159.41-43.999 66.76-68.907 226.18-112.906 159.41-43.999 252.07-19.091 411.53-63.103 159.46-44.011 66.76-68.907 226.18-112.906M-184.014 482.891c159.417-43.999 252.068-19.091 411.485-63.09 159.416-43.999 66.765-68.907 226.136-112.893 159.371-43.987 252.068-19.091 411.484-63.09 159.419-43.999 66.766-68.907 226.179-112.906 159.42-43.999 252.07-19.091 411.53-63.102 159.47-44.012 66.77-68.907 226.19-112.906M971.648 797.867c159.422-43.999 252.072-19.09 411.482-63.089 159.42-43.999 66.77-68.908 226.14-112.894 159.37-43.986 252.07-19.09 411.48-63.089 159.42-43.999 66.77-68.907 226.19-112.906 159.41-43.999 252.06-19.091 411.53-63.103 159.46-44.011 66.76-68.907 226.18-112.906"/><path d="M-1073.25 234.742c159.417-43.999 252.068-19.09 411.484-63.089C-502.349 127.654-595 102.745-435.629 58.759c159.37-43.986 252.067-19.09 411.484-63.09C135.272-48.328 42.62-73.237 202.037-117.235c159.417-43.999 252.068-19.091 411.53-63.103 159.463-44.011 66.766-68.907 226.183-112.906M84.717 545.062c159.416-43.998 252.068-19.09 411.484-63.089 159.417-43.999 66.766-68.907 226.136-112.894 159.371-43.986 252.068-19.09 411.483-63.089 159.42-43.999 66.77-68.907 226.18-112.906 159.42-43.999 252.07-19.091 411.53-63.102C1931 85.97 1838.3 61.074 1997.72 17.076M-502.981 387.273c159.416-43.998 252.067-19.09 411.484-63.089C67.92 280.185-24.731 255.277 134.639 211.29c159.371-43.986 252.068-19.09 411.485-63.089 159.416-43.999 66.765-68.907 226.182-112.906 159.416-44 252.064-19.09 411.534-63.103 159.46-44.011 66.76-68.907 226.18-112.906M652.682 702.25c159.416-43.999 252.067-19.091 411.488-63.09 159.41-43.998 66.76-68.907 226.13-112.893 159.37-43.986 252.07-19.091 411.49-63.09 159.41-43.998 66.76-68.907 226.18-112.906 159.42-43.999 252.07-19.09 411.53-63.102 159.46-44.011 66.76-68.907 226.18-112.906M-793.017 315.969c159.417-43.999 252.068-19.091 411.485-63.09 159.416-43.999 66.765-68.907 226.136-112.893C3.974 96 96.672 120.895 256.088 76.896 415.505 32.897 322.854 7.99 482.27-36.01 641.687-80.009 734.338-55.1 893.801-99.112c159.459-44.012 66.765-68.907 226.179-112.906M362.645 625.773c159.416-43.998 252.067-19.09 411.484-63.089 159.417-43.999 66.765-68.907 226.141-112.894 159.37-43.986 252.06-19.09 411.48-63.089 159.42-43.999 66.77-68.907 226.18-112.906 159.42-43.999 252.07-19.091 411.53-63.102 159.46-44.012 66.77-68.908 226.18-112.907M-222.749 468.508c159.417-43.999 252.068-19.091 411.484-63.09 159.417-43.999 66.766-68.907 226.137-112.893 159.37-43.986 252.067-19.091 411.484-63.09 159.417-43.999 66.765-68.907 226.184-112.906 159.41-43.999 252.07-19.09 411.53-63.102 159.46-44.012 66.76-68.907 226.18-112.906M932.914 783.484c159.416-43.998 252.066-19.09 411.486-63.089 159.42-43.999 66.76-68.907 226.13-112.894 159.38-43.986 252.07-19.09 411.49-63.089 159.42-43.999 66.76-68.907 226.18-112.906 159.42-43.999 252.07-19.091 411.53-63.102 159.46-44.012 66.77-68.908 226.18-112.907m-4028-47.333c159.42-43.999 252.067-19.091 411.484-63.09 159.416-43.998 66.765-68.907 226.136-112.893 159.371-43.986 252.068-19.09 411.484-63.09C26.431-74.906-66.22-99.816 93.196-143.815c159.417-43.999 252.068-19.09 411.531-63.102 159.462-44.011 66.765-68.907 226.182-112.906M-24.124 518.492c159.417-43.999 252.068-19.09 411.484-63.089 159.417-43.999 66.766-68.908 226.137-112.894 159.37-43.986 252.067-19.09 411.483-63.089 159.42-43.999 66.77-68.908 226.18-112.906 159.42-43.999 252.07-19.091 411.53-63.103 159.47-44.011 66.77-68.907 226.19-112.906M-611.822 365.883c159.416-43.999 252.067-19.091 411.484-63.09 159.417-43.999 66.766-68.907 226.136-112.893 159.371-43.986 252.068-19.091 411.485-63.09 159.416-43.999 66.765-68.907 226.182-112.906C822.881-30.095 915.533-5.186 1075-49.198c159.46-44.012 66.76-68.907 226.18-112.906M543.84 675.68c159.416-43.999 252.068-19.091 411.484-63.09 159.416-43.999 66.766-68.907 226.136-112.893 159.37-43.987 252.07-19.091 411.48-63.09 159.42-43.999 66.77-68.907 226.19-112.906 159.41-43.999 252.06-19.091 411.53-63.102 159.46-44.012 66.76-68.907 226.18-112.906M-901.858 289.398c159.416-43.998 252.067-19.09 411.484-63.089 159.417-43.999 66.766-68.907 226.136-112.894 159.371-43.986 252.068-19.09 411.485-63.09C306.663 6.328 214.012-18.58 373.429-62.58c159.416-43.999 252.067-19.09 411.53-63.102 159.462-44.012 66.765-68.908 226.181-112.907M256.108 599.719c159.417-43.999 252.068-19.091 411.485-63.09 159.416-43.999 66.765-68.907 226.136-112.893 159.371-43.987 252.071-19.091 411.481-63.09 159.42-43.999 66.77-68.907 226.19-112.906 159.41-43.999 252.06-19.091 411.53-63.102 159.46-44.012 66.76-68.907 226.18-112.906M-331.59 441.93c159.417-43.999 252.068-19.091 411.484-63.09 159.417-43.999 66.766-68.907 226.137-112.893 159.371-43.987 252.068-19.091 411.484-63.09 159.417-43.999 66.766-68.907 226.182-112.906 159.413-43.999 252.073-19.09 411.533-63.102s66.76-68.907 226.18-112.906M824.072 756.906c159.417-43.999 252.068-19.09 411.488-63.089 159.41-43.999 66.76-68.907 226.13-112.894 159.37-43.986 252.07-19.09 411.49-63.089 159.41-43.999 66.76-68.907 226.18-112.906 159.42-43.999 252.07-19.091 411.53-63.103 159.46-44.011 66.77-68.907 226.18-112.906"/><path d="M-988.188 261.578c159.417-43.999 252.068-19.091 411.485-63.089 159.417-43.999 66.765-68.908 226.136-112.894 159.371-43.986 252.068-19.09 411.485-63.09C220.334-21.492 127.683-46.401 287.1-90.4c159.416-43.999 252.067-19.091 411.53-63.103 159.462-44.011 66.765-68.907 226.182-112.906M169.778 571.898c159.417-43.998 252.068-19.09 411.485-63.089 159.416-43.999 66.765-68.907 226.136-112.894 159.371-43.986 252.071-19.09 411.481-63.089 159.42-43.999 66.77-68.907 226.19-112.906 159.41-43.999 252.06-19.091 411.53-63.102 159.46-44.012 66.76-68.908 226.18-112.907m-2500.7 370.206c159.417-43.999 252.068-19.09 411.484-63.089 159.417-43.999 66.766-68.908 226.137-112.894 159.37-43.986 252.067-19.09 411.484-63.089 159.417-43.999 66.766-68.908 226.182-112.906 159.413-44 252.063-19.091 411.533-63.103 159.46-44.011 66.76-68.907 226.18-112.906M737.743 729.094c159.417-43.999 252.068-19.091 411.487-63.09 159.41-43.999 66.76-68.907 226.13-112.893 159.37-43.986 252.07-19.091 411.49-63.09 159.41-43.999 66.76-68.907 226.18-112.906 159.42-43.999 252.07-19.091 411.53-63.102 159.46-44.012 66.77-68.907 226.18-112.906M-707.956 342.812c159.417-43.998 252.068-19.09 411.484-63.089 159.417-43.999 66.766-68.907 226.137-112.894 159.37-43.986 252.067-19.09 411.484-63.089C500.566 59.741 407.914 34.833 567.331-9.166c159.417-44 252.068-19.09 411.53-63.102 159.459-44.012 66.769-68.908 226.179-112.906M447.705 652.609c159.417-43.999 252.068-19.09 411.484-63.089 159.421-43.999 66.766-68.907 226.141-112.894 159.37-43.986 252.06-19.09 411.48-63.089 159.42-43.999 66.77-68.907 226.18-112.906 159.42-43.999 252.07-19.091 411.53-63.103 159.46-44.011 66.77-68.907 226.18-112.906M-137.688 495.344c159.417-43.999 252.068-19.091 411.485-63.09s66.765-68.907 226.136-112.893c159.371-43.987 252.068-19.091 411.485-63.09 159.412-43.999 66.765-68.907 226.182-112.906 159.42-43.999 252.07-19.091 411.53-63.102 159.46-44.012 66.77-68.907 226.18-112.906M1017.97 810.32c159.42-43.999 252.07-19.09 411.49-63.089 159.42-43.999 66.76-68.907 226.14-112.894 159.37-43.986 252.06-19.09 411.48-63.089 159.42-43.999 66.77-68.907 226.18-112.906 159.42-43.999 252.07-19.091 411.53-63.103 159.46-44.011 66.77-68.907 226.18-112.906"/><path d="M-377.915 429.477c159.417-43.999 252.068-19.091 411.484-63.09 159.417-43.999 66.766-68.907 226.137-112.893 159.37-43.987 252.067-19.091 411.484-63.09 159.417-43.999 66.765-68.907 226.182-112.906 159.418-43.999 252.068-19.09 411.528-63.102s66.77-68.907 226.18-112.906m-2763.5 294.221c159.42-43.999 252.072-19.091 411.488-63.09 159.417-43.999 66.766-68.907 226.137-112.893 159.37-43.986 252.067-19.09 411.484-63.09 159.417-43.999 66.765-68.907 226.182-112.906 159.417-43.999 252.068-19.09 411.53-63.102 159.463-44.012 66.766-68.907 226.183-112.906M-70.45 506.031c159.417-43.999 252.069-19.09 411.485-63.089 159.417-43.999 66.766-68.908 226.136-112.894 159.371-43.986 252.068-19.09 411.485-63.089 159.414-43.999 66.764-68.907 226.184-112.906 159.41-43.999 252.07-19.091 411.53-63.103 159.46-44.011 66.76-68.907 226.18-112.906M-658.147 353.43c159.416-43.999 252.067-19.091 411.484-63.09 159.417-43.999 66.765-68.907 226.136-112.893 159.371-43.987 252.068-19.091 411.485-63.09C550.374 70.358 457.723 45.45 617.14 1.451c159.416-43.999 252.067-19.09 411.53-63.102 159.46-44.012 66.77-68.907 226.18-112.906M497.515 663.227c159.416-43.999 252.067-19.091 411.484-63.09 159.421-43.999 66.766-68.907 226.141-112.893 159.37-43.987 252.06-19.091 411.48-63.09 159.42-43.999 66.77-68.907 226.18-112.906 159.42-43.999 252.07-19.091 411.53-63.102 159.46-44.012 66.77-68.908 226.18-112.906M-948.184 276.945c159.417-43.999 252.068-19.09 411.485-63.089 159.416-43.999 66.765-68.907 226.136-112.894 159.371-43.986 252.068-19.09 411.484-63.09C260.338-6.125 167.687-31.033 327.104-75.032c159.416-43.999 252.067-19.091 411.53-63.103 159.462-44.011 66.765-68.907 226.182-112.906M209.782 587.266c159.417-43.999 252.068-19.091 411.485-63.09 159.416-43.999 66.765-68.907 226.136-112.893 159.367-43.987 252.067-19.091 411.487-63.09 159.41-43.999 66.76-68.907 226.18-112.906 159.42-43.999 252.07-19.091 411.53-63.102 159.46-44.012 66.77-68.907 226.18-112.906m-3242.36 163.01c159.421-43.999 252.073-19.091 411.489-63.09 159.417-43.998 66.766-68.907 226.136-112.893C-322.584 2.32-229.887 27.216-70.47-16.784 88.947-60.782-3.705-85.69 155.712-129.69c159.417-43.999 252.068-19.09 411.53-63.102 159.463-44.011 66.766-68.907 226.182-112.906M38.392 532.609c159.416-43.999 252.067-19.09 411.484-63.089 159.417-43.999 66.766-68.907 226.136-112.894 159.371-43.986 252.068-19.09 411.488-63.089 159.41-43.999 66.76-68.907 226.18-112.906 159.42-43.999 252.07-19.091 411.53-63.103 159.46-44.011 66.76-68.907 226.18-112.906M-549.307 374.82c159.417-43.999 252.068-19.09 411.485-63.089 159.416-43.999 66.765-68.907 226.136-112.894 159.371-43.986 252.068-19.09 411.484-63.089 159.417-44 66.766-68.907 226.182-112.906 159.417-44 252.068-19.091 411.53-63.103 159.46-44.011 66.77-68.907 226.18-112.906M606.355 689.797c159.417-43.999 252.068-19.091 411.485-63.09 159.42-43.999 66.77-68.907 226.14-112.893 159.37-43.986 252.06-19.091 411.48-63.09 159.42-43.999 66.77-68.907 226.18-112.906 159.42-43.999 252.07-19.09 411.53-63.102 159.47-44.012 66.77-68.907 226.18-112.906M-839.343 303.516c159.417-43.999 252.068-19.091 411.485-63.09 159.416-43.999 66.765-68.907 226.136-112.893 159.37-43.987 252.068-19.091 411.484-63.09C369.179 20.444 276.528-4.464 435.944-48.463c159.417-43.999 252.068-19.09 411.531-63.102 159.465-44.012 66.765-68.907 226.185-112.906M316.32 613.312c159.417-43.998 252.068-19.09 411.485-63.089 159.416-43.999 66.765-68.907 226.136-112.894 159.369-43.986 252.069-19.09 411.489-63.089 159.41-43.999 66.76-68.907 226.18-112.906 159.41-43.999 252.07-19.091 411.53-63.102 159.46-44.012 66.76-68.908 226.18-112.906M-269.075 456.055c159.416-43.999 252.068-19.091 411.484-63.09 159.417-43.999 66.766-68.907 226.136-112.893 159.371-43.987 252.068-19.091 411.485-63.09 159.416-43.999 66.765-68.907 226.18-112.906 159.42-43.999 252.07-19.09 411.53-63.102 159.46-44.012 66.77-68.907 226.18-112.906M886.588 771.031c159.412-43.999 252.072-19.09 411.482-63.089 159.42-43.999 66.77-68.907 226.14-112.894 159.37-43.986 252.07-19.09 411.48-63.089 159.42-43.999 66.77-68.907 226.18-112.906 159.42-43.999 252.07-19.091 411.54-63.103 159.46-44.011 66.76-68.907 226.18-112.906"/></g><defs><clipPath id="a"><path fill="#fff" d="M0 0h1920v499H0z"/></clipPath></defs></svg>