<svg xmlns="http://www.w3.org/2000/svg" fill="none" viewBox="0 0 109 16"><g fill="#EDA708" fill-rule="evenodd" clip-path="url(#a)" clip-rule="evenodd"><path d="m8.363 0 1.975 6.076h6.389l-5.17 3.756 1.975 6.076-5.169-3.755-5.169 3.755L5.17 9.832 0 6.076h6.389L8.363 0Zm22.993 0 1.974 6.076h6.39l-5.17 3.756 1.975 6.076-5.17-3.755-5.168 3.755 1.974-6.076-5.169-3.756h6.39L31.355 0Zm22.886 0 1.975 6.076h6.389l-5.17 3.756 1.975 6.076-5.169-3.755-5.169 3.755 1.975-6.076-5.17-3.756h6.39L54.242 0Zm22.885 0 1.974 6.076h6.39l-5.17 3.756 1.975 6.076-5.169-3.755-5.169 3.755 1.974-6.076-5.168-3.756h6.389L77.127 0Zm22.877 0 1.974 6.076h6.389l-5.169 3.756 1.975 6.076-5.169-3.755-5.169 3.755 1.974-6.076-5.168-3.756h6.389L100.004 0Z"/></g><defs><clipPath id="a"><path fill="#fff" d="M0 0h108.431v16H0z"/></clipPath></defs></svg>